<!-- Generated by dot version 1.8.2 (Mon Mar 11 21:37:35 EDT 2002)
     For user: Bill Gates   Title: G    Pages: 1 -->
<svg width="3256px" height="2222px" xmlns='http://www.w3.org/2000/svg' xmlns:xlink='http://www.w3.org/1999/xlink'>
<g id="G" class="graph">
<g id="cluster:1" class="cluster">
<polygon style="fill:#f2f2f2;stroke:#f2f2f2" points="250,499 408,499 408,447 250,447 250,499"/>
<text text-anchor="middle" x="320" y="442" style="font-family:Times;font-size:14.00"> src/j2ee/build.xml</text>
</g>
<g id="cluster:2" class="cluster">
<polygon style="fill:#f2f2f2;stroke:#f2f2f2" points="1291,717 1417,717 1417,593 1291,593 1291,717"/>
<text text-anchor="middle" x="1361" y="588" style="font-family:Times;font-size:14.00"> src/tests/build.xml</text>
</g>
<g id="cluster:3" class="cluster">
<polygon style="fill:#f2f2f2;stroke:#f2f2f2" points="479,219 697,219 697,23 479,23 479,219"/>
<text text-anchor="middle" x="623" y="18" style="font-family:Times;font-size:14.00"> proposals/PasswordPrompter/build.xml</text>
</g>
<g id="cluster:4" class="cluster">
<polygon style="fill:#f2f2f2;stroke:#f2f2f2" points="494,435 682,435 682,239 494,239 494,435"/>
<text text-anchor="middle" x="625" y="234" style="font-family:Times;font-size:14.00"> proposals/StreamHandler/build.xml</text>
</g>
<g id="detect" class="node">
<a xlink:href="javascript:alert('detect');">
<ellipse cx="3206" cy="950" rx="30" ry="18" style="fill:#d9d9d9;stroke:#d9d9d9"/>
<text text-anchor="middle" x="3206" y="955" style="font-family:Times;font-size:14.00">detect</text>
</a></g>
<g id="msg.jdk12" class="node">
<a xlink:href="javascript:alert('msg.jdk12');">
<ellipse cx="3010" cy="1647" rx="44" ry="18" style="fill:#d9d9d9;stroke:#d9d9d9"/>
<text text-anchor="middle" x="3010" y="1652" style="font-family:Times;font-size:14.00">msg.jdk12</text>
</a></g>
<g id="msg.jsse" class="node">
<a xlink:href="javascript:alert('msg.jsse');">
<ellipse cx="3010" cy="1431" rx="38" ry="18" style="fill:#d9d9d9;stroke:#d9d9d9"/>
<text text-anchor="middle" x="3010" y="1436" style="font-family:Times;font-size:14.00">msg.jsse</text>
</a></g>
<g id="msg.puretls" class="node">
<a xlink:href="javascript:alert('msg.puretls');">
<ellipse cx="3010" cy="1503" rx="49" ry="18" style="fill:#d9d9d9;stroke:#d9d9d9"/>
<text text-anchor="middle" x="3010" y="1508" style="font-family:Times;font-size:14.00">msg.puretls</text>
</a></g>
<g id="msg.commons-dbcp" class="node">
<a xlink:href="javascript:alert('msg.commons-dbcp');">
<ellipse cx="3010" cy="1575" rx="79" ry="18" style="fill:#d9d9d9;stroke:#d9d9d9"/>
<text text-anchor="middle" x="3010" y="1580" style="font-family:Times;font-size:14.00">msg.commons-dbcp</text>
</a></g>
<g id="init" class="node">
<a xlink:href="javascript:alert('init');">
<ellipse cx="2783" cy="1539" rx="27" ry="18" style="fill:#d9d9d9;stroke:#d9d9d9"/>
<text text-anchor="middle" x="2783" y="1544" style="font-family:Times;font-size:14.00">init</text>
</a></g>
<g id="init-&gt;detect" class="edge">
<g style="fill:none;stroke:#b3b3b3"><path d="M2793,1522C2955,1267 3022,1213 3190,973"/></g>
<polygon style="fill:#b3b3b3;stroke:#b3b3b3" points="3191,976 3195,967 3187,973 3191,976"/>
</g>
<g id="init-&gt;msg.jdk12" class="edge">
<g style="fill:none;stroke:#b3b3b3"><path d="M2805,1550C2834,1564 2886,1589 2931,1611 2944,1617 2958,1624 2971,1629"/></g>
<polygon style="fill:#b3b3b3;stroke:#b3b3b3" points="2970,1631 2980,1633 2972,1627 2970,1631"/>
</g>
<g id="init-&gt;msg.jsse" class="edge">
<g style="fill:none;stroke:#b3b3b3"><path d="M2805,1528C2834,1514 2886,1488 2931,1467 2945,1460 2960,1453 2974,1447"/></g>
<polygon style="fill:#b3b3b3;stroke:#b3b3b3" points="2974,1450 2982,1443 2972,1445 2974,1450"/>
</g>
<g id="init-&gt;msg.puretls" class="edge">
<g style="fill:none;stroke:#b3b3b3"><path d="M2809,1535C2844,1529 2909,1519 2954,1511"/></g>
<polygon style="fill:#b3b3b3;stroke:#b3b3b3" points="2954,1513 2964,1510 2954,1509 2954,1513"/>
</g>
<g id="init-&gt;msg.commons-dbcp" class="edge">
<g style="fill:none;stroke:#b3b3b3"><path d="M2809,1543C2840,1549 2892,1557 2936,1564"/></g>
<polygon style="fill:#b3b3b3;stroke:#b3b3b3" points="2935,1566 2945,1565 2935,1561 2935,1566"/>
</g>
<g id="prepare.jaxp101" class="node">
<a xlink:href="javascript:alert('prepare.jaxp101');">
<ellipse cx="2783" cy="1023" rx="62" ry="18" style="fill:#d9d9d9;stroke:#d9d9d9"/>
<text text-anchor="middle" x="2783" y="1028" style="font-family:Times;font-size:14.00">prepare.jaxp101</text>
</a></g>
<g id="prepare.jaxp101-&gt;detect" class="edge">
<g style="fill:none;stroke:#b3b3b3"><path d="M2837,1014C2924,998 3095,969 3170,956"/></g>
<polygon style="fill:#b3b3b3;stroke:#b3b3b3" points="3167,959 3177,955 3167,954 3167,959"/>
</g>
<g id="include.jaxp" class="node">
<a xlink:href="javascript:alert('include.jaxp');">
<ellipse cx="3010" cy="877" rx="52" ry="18" style="fill:#d9d9d9;stroke:#d9d9d9"/>
<text text-anchor="middle" x="3010" y="882" style="font-family:Times;font-size:14.00">include.jaxp</text>
</a></g>
<g id="include.jaxp-&gt;detect" class="edge">
<g style="fill:none;stroke:#b3b3b3"><path d="M3045,890C3081,903 3138,924 3173,937"/></g>
<polygon style="fill:#b3b3b3;stroke:#b3b3b3" points="3170,938 3180,940 3172,934 3170,938"/>
</g>
<g id="prepare.jaxp11" class="node">
<a xlink:href="javascript:alert('prepare.jaxp11');">
<ellipse cx="2783" cy="877" rx="58" ry="18" style="fill:#d9d9d9;stroke:#d9d9d9"/>
<text text-anchor="middle" x="2783" y="882" style="font-family:Times;font-size:14.00">prepare.jaxp11</text>
</a></g>
<g id="prepare.jaxp11-&gt;detect" class="edge">
<g style="fill:none;stroke:#b3b3b3"><path d="M2818,863C2877,841 2996,806 3089,841 3146,861 3163,878 3195,925"/></g>
<polygon style="fill:#b3b3b3;stroke:#b3b3b3" points="3192,925 3199,932 3196,922 3192,925"/>
</g>
<g id="prepare.jaxp11-&gt;include.jaxp" class="edge">
<g style="fill:none;stroke:#b3b3b3"><path d="M2841,877C2873,877 2914,877 2947,877"/></g>
<polygon style="fill:#b3b3b3;stroke:#b3b3b3" points="2948,879 2958,877 2948,874 2948,879"/>
</g>
<g id="prepare.xerces" class="node">
<a xlink:href="javascript:alert('prepare.xerces');">
<ellipse cx="2783" cy="950" rx="59" ry="18" style="fill:#d9d9d9;stroke:#d9d9d9"/>
<text text-anchor="middle" x="2783" y="955" style="font-family:Times;font-size:14.00">prepare.xerces</text>
</a></g>
<g id="prepare.xerces-&gt;detect" class="edge">
<g style="fill:none;stroke:#b3b3b3"><path d="M2842,950C2930,950 3090,950 3165,950"/></g>
<polygon style="fill:#b3b3b3;stroke:#b3b3b3" points="3165,952 3175,950 3165,947 3165,952"/>
</g>
<g id="prepare.jaxp" class="node">
<a xlink:href="javascript:alert('prepare.jaxp');">
<ellipse cx="2581" cy="913" rx="53" ry="18" style="fill:#d9d9d9;stroke:#d9d9d9"/>
<text text-anchor="middle" x="2581" y="918" style="font-family:Times;font-size:14.00">prepare.jaxp</text>
</a></g>
<g id="prepare.jaxp-&gt;prepare.jaxp101" class="edge">
<g style="fill:none;stroke:#b3b3b3"><path d="M2610,929C2645,949 2706,981 2746,1003"/></g>
<polygon style="fill:#b3b3b3;stroke:#b3b3b3" points="2744,1005 2754,1007 2746,1000 2744,1005"/>
</g>
<g id="prepare.jaxp-&gt;prepare.jaxp11" class="edge">
<g style="fill:none;stroke:#b3b3b3"><path d="M2628,905C2657,900 2693,893 2723,888"/></g>
<polygon style="fill:#b3b3b3;stroke:#b3b3b3" points="2724,890 2733,886 2723,886 2724,890"/>
</g>
<g id="prepare.jaxp-&gt;prepare.xerces" class="edge">
<g style="fill:none;stroke:#b3b3b3"><path d="M2628,922C2656,927 2692,934 2722,939"/></g>
<polygon style="fill:#b3b3b3;stroke:#b3b3b3" points="2722,941 2732,941 2723,937 2722,941"/>
</g>
<g id="prepare" class="node">
<a xlink:href="javascript:alert('prepare');">
<ellipse cx="2387" cy="1135" rx="37" ry="18" style="fill:#d9d9d9;stroke:#d9d9d9"/>
<text text-anchor="middle" x="2387" y="1140" style="font-family:Times;font-size:14.00">prepare</text>
</a></g>
<g id="prepare-&gt;init" class="edge">
<g style="fill:none;stroke:#b3b3b3"><path d="M2420,1143C2472,1158 2572,1192 2635,1254 2676,1293 2745,1451 2773,1513"/></g>
<polygon style="fill:#b3b3b3;stroke:#b3b3b3" points="2770,1513 2776,1521 2775,1511 2770,1513"/>
</g>
<g id="prepare-&gt;prepare.jaxp" class="edge">
<g style="fill:none;stroke:#b3b3b3"><path d="M2402,1118C2436,1080 2521,981 2561,937"/></g>
<polygon style="fill:#b3b3b3;stroke:#b3b3b3" points="2562,940 2566,931 2558,937 2562,940"/>
</g>
<g id="prepare.dirs" class="node">
<a xlink:href="javascript:alert('prepare.dirs');">
<ellipse cx="2581" cy="1135" rx="50" ry="18" style="fill:#d9d9d9;stroke:#d9d9d9"/>
<text text-anchor="middle" x="2581" y="1140" style="font-family:Times;font-size:14.00">prepare.dirs</text>
</a></g>
<g id="prepare-&gt;prepare.dirs" class="edge">
<g style="fill:none;stroke:#b3b3b3"><path d="M2424,1135C2451,1135 2489,1135 2520,1135"/></g>
<polygon style="fill:#b3b3b3;stroke:#b3b3b3" points="2520,1137 2530,1135 2520,1132 2520,1137"/>
</g>
<g id="prepare.dirs-&gt;init" class="edge">
<g style="fill:none;stroke:#b3b3b3"><path d="M2606,1151C2616,1159 2627,1169 2635,1180 2716,1290 2762,1451 2777,1513"/></g>
<polygon style="fill:#b3b3b3;stroke:#b3b3b3" points="2774,1512 2779,1521 2779,1511 2774,1512"/>
</g>
<g id="tomcat_util" class="node">
<a xlink:href="javascript:alert('tomcat_util');">
<ellipse cx="1947" cy="1798" rx="50" ry="18" style="fill:#d9d9d9;stroke:#d9d9d9"/>
<text text-anchor="middle" x="1947" y="1803" style="font-family:Times;font-size:14.00">tomcat_util</text>
</a></g>
<g id="tomcat_util-&gt;init" class="edge">
<g style="fill:none;stroke:#b3b3b3"><path d="M1998,1799C2116,1800 2417,1791 2635,1682 2700,1649 2703,1622 2755,1574 2761,1569 2764,1566 2768,1563"/></g>
<polygon style="fill:#b3b3b3;stroke:#b3b3b3" points="2769,1565 2774,1556 2766,1562 2769,1565"/>
</g>
<g id="tomcat.jar" class="node">
<a xlink:href="javascript:alert('tomcat.jar');">
<ellipse cx="1748" cy="1502" rx="45" ry="18" style="fill:#d9d9d9;stroke:#d9d9d9"/>
<text text-anchor="middle" x="1748" y="1507" style="font-family:Times;font-size:14.00">tomcat.jar</text>
</a></g>
<g id="tomcat.jar-&gt;init" class="edge">
<g style="fill:none;stroke:#b3b3b3"><path d="M1793,1502C1871,1502 2035,1502 2174,1502 2174,1502 2174,1502 2387,1502 2521,1502 2678,1523 2748,1534"/></g>
<polygon style="fill:#b3b3b3;stroke:#b3b3b3" points="2747,1536 2757,1535 2747,1531 2747,1536"/>
</g>
<g id="tomcat_modules" class="node">
<a xlink:href="javascript:alert('tomcat_modules');">
<ellipse cx="1947" cy="1429" rx="68" ry="18" style="fill:#d9d9d9;stroke:#d9d9d9"/>
<text text-anchor="middle" x="1947" y="1434" style="font-family:Times;font-size:14.00">tomcat_modules</text>
</a></g>
<g id="tomcat.jar-&gt;tomcat_modules" class="edge">
<g style="fill:none;stroke:#b3b3b3"><path d="M1781,1490C1814,1478 1863,1460 1899,1447"/></g>
<polygon style="fill:#b3b3b3;stroke:#b3b3b3" points="1899,1450 1907,1444 1897,1445 1899,1450"/>
</g>
<g id="tomcat_modules-&gt;init" class="edge">
<g style="fill:none;stroke:#b3b3b3"><path d="M2014,1426C2139,1421 2413,1419 2635,1474 2680,1485 2727,1509 2756,1524"/></g>
<polygon style="fill:#b3b3b3;stroke:#b3b3b3" points="2752,1525 2762,1527 2754,1520 2752,1525"/>
</g>
<g id="commons-prepare" class="node">
<a xlink:href="javascript:alert('commons-prepare');">
<ellipse cx="2174" cy="1355" rx="73" ry="18" style="fill:#d9d9d9;stroke:#d9d9d9"/>
<text text-anchor="middle" x="2174" y="1360" style="font-family:Times;font-size:14.00">commons-prepare</text>
</a></g>
<g id="tomcat_modules-&gt;commons-prepare" class="edge">
<g style="fill:none;stroke:#b3b3b3"><path d="M1990,1415C2027,1403 2082,1386 2122,1372"/></g>
<polygon style="fill:#b3b3b3;stroke:#b3b3b3" points="2122,1375 2130,1369 2120,1370 2122,1375"/>
</g>
<g id="stop-tomcat.jar" class="node">
<a xlink:href="javascript:alert('stop-tomcat.jar');">
<ellipse cx="2174" cy="1576" rx="61" ry="18" style="fill:#d9d9d9;stroke:#d9d9d9"/>
<text text-anchor="middle" x="2174" y="1581" style="font-family:Times;font-size:14.00">stop-tomcat.jar</text>
</a></g>
<g id="stop-tomcat.jar-&gt;init" class="edge">
<g style="fill:none;stroke:#b3b3b3"><path d="M2234,1572C2360,1564 2646,1547 2747,1541"/></g>
<polygon style="fill:#b3b3b3;stroke:#b3b3b3" points="2746,1543 2756,1541 2746,1538 2746,1543"/>
</g>
<g id="tomcat_core" class="node">
<a xlink:href="javascript:alert('tomcat_core');">
<ellipse cx="2387" cy="1650" rx="53" ry="18" style="fill:#d9d9d9;stroke:#d9d9d9"/>
<text text-anchor="middle" x="2387" y="1655" style="font-family:Times;font-size:14.00">tomcat_core</text>
</a></g>
<g id="tomcat_core-&gt;init" class="edge">
<g style="fill:none;stroke:#b3b3b3"><path d="M2438,1644C2488,1637 2568,1624 2635,1604 2677,1591 2723,1569 2753,1555"/></g>
<polygon style="fill:#b3b3b3;stroke:#b3b3b3" points="2754,1557 2762,1550 2752,1553 2754,1557"/>
</g>
<g id="tomcat-startup" class="node">
<a xlink:href="javascript:alert('tomcat-startup');">
<ellipse cx="1947" cy="1724" rx="60" ry="18" style="fill:#d9d9d9;stroke:#d9d9d9"/>
<text text-anchor="middle" x="1947" y="1729" style="font-family:Times;font-size:14.00">tomcat-startup</text>
</a></g>
<g id="tomcat-startup-&gt;init" class="edge">
<g style="fill:none;stroke:#b3b3b3"><path d="M2007,1727C2130,1731 2418,1728 2635,1637 2698,1610 2722,1604 2766,1561"/></g>
<polygon style="fill:#b3b3b3;stroke:#b3b3b3" points="2767,1564 2772,1555 2763,1560 2767,1564"/>
</g>
<g id="facade22" class="node">
<a xlink:href="javascript:alert('facade22');">
<ellipse cx="2174" cy="1980" rx="42" ry="18" style="fill:#d9d9d9;stroke:#d9d9d9"/>
<text text-anchor="middle" x="2174" y="1985" style="font-family:Times;font-size:14.00">facade22</text>
</a></g>
<g id="facade22-&gt;init" class="edge">
<g style="fill:none;stroke:#b3b3b3"><path d="M2207,1991C2288,2017 2500,2070 2635,1979 2768,1889 2720,1796 2762,1643 2769,1619 2772,1613 2776,1590 2777,1582 2779,1574 2780,1566"/></g>
<polygon style="fill:#b3b3b3;stroke:#b3b3b3" points="2782,1567 2781,1557 2777,1567 2782,1567"/>
</g>
<g id="commons-prepare-&gt;prepare" class="edge">
<g style="fill:none;stroke:#b3b3b3"><path d="M2191,1337C2230,1298 2323,1201 2365,1157"/></g>
<polygon style="fill:#b3b3b3;stroke:#b3b3b3" points="2366,1160 2371,1151 2362,1156 2366,1160"/>
</g>
<g id="jasper" class="node">
<a xlink:href="javascript:alert('jasper');">
<ellipse cx="1748" cy="1319" rx="31" ry="18" style="fill:#d9d9d9;stroke:#d9d9d9"/>
<text text-anchor="middle" x="1748" y="1324" style="font-family:Times;font-size:14.00">jasper</text>
</a></g>
<g id="jasper-&gt;init" class="edge">
<g style="fill:none;stroke:#b3b3b3"><path d="M1779,1315C1849,1305 2025,1282 2174,1282 2174,1282 2174,1282 2387,1282 2517,1282 2526,1365 2635,1434 2695,1470 2723,1468 2768,1515"/></g>
<polygon style="fill:#b3b3b3;stroke:#b3b3b3" points="2766,1516 2774,1522 2769,1513 2766,1516"/>
</g>
<g id="tomcat-jars" class="node">
<a xlink:href="javascript:alert('tomcat-jars');">
<ellipse cx="1567" cy="1613" rx="49" ry="18" style="fill:#d9d9d9;stroke:#d9d9d9"/>
<text text-anchor="middle" x="1567" y="1618" style="font-family:Times;font-size:14.00">tomcat-jars</text>
</a></g>
<g id="tomcat-jars-&gt;prepare" class="edge">
<g style="fill:none;stroke:#b3b3b3"><path d="M1569,1595C1575,1539 1602,1367 1703,1283 1716,1272 2195,1174 2343,1144"/></g>
<polygon style="fill:#b3b3b3;stroke:#b3b3b3" points="2343,1147 2352,1142 2342,1142 2343,1147"/>
</g>
<g id="tomcat-jars-&gt;tomcat_util" class="edge">
<g style="fill:none;stroke:#b3b3b3"><path d="M1575,1631C1616,1681 1643,1680 1703,1709 1770,1741 1851,1768 1901,1784"/></g>
<polygon style="fill:#b3b3b3;stroke:#b3b3b3" points="1898,1786 1908,1786 1899,1781 1898,1786"/>
</g>
<g id="tomcat-jars-&gt;tomcat.jar" class="edge">
<g style="fill:none;stroke:#b3b3b3"><path d="M1593,1597C1625,1577 1681,1543 1716,1521"/></g>
<polygon style="fill:#b3b3b3;stroke:#b3b3b3" points="1716,1524 1723,1517 1713,1520 1716,1524"/>
</g>
<g id="tomcat-jars-&gt;tomcat_modules" class="edge">
<g style="fill:none;stroke:#b3b3b3"><path d="M1578,1595C1608,1557 1669,1484 1703,1466 1754,1439 1819,1430 1869,1428"/></g>
<polygon style="fill:#b3b3b3;stroke:#b3b3b3" points="1869,1430 1879,1428 1869,1425 1869,1430"/>
</g>
<g id="tomcat-jars-&gt;stop-tomcat.jar" class="edge">
<g style="fill:none;stroke:#b3b3b3"><path d="M1616,1610C1724,1603 1983,1588 2107,1580"/></g>
<polygon style="fill:#b3b3b3;stroke:#b3b3b3" points="2104,1582 2114,1580 2104,1577 2104,1582"/>
</g>
<g id="tomcat-jars-&gt;tomcat_core" class="edge">
<g style="fill:none;stroke:#b3b3b3"><path d="M1616,1615C1758,1622 2167,1640 2325,1648"/></g>
<polygon style="fill:#b3b3b3;stroke:#b3b3b3" points="2324,1650 2334,1648 2324,1645 2324,1650"/>
</g>
<g id="tomcat-jars-&gt;tomcat-startup" class="edge">
<g style="fill:none;stroke:#b3b3b3"><path d="M1594,1628C1621,1643 1664,1665 1703,1678 1763,1697 1833,1710 1883,1716"/></g>
<polygon style="fill:#b3b3b3;stroke:#b3b3b3" points="1880,1718 1890,1717 1880,1713 1880,1718"/>
</g>
<g id="tomcat-jars-&gt;facade22" class="edge">
<g style="fill:none;stroke:#b3b3b3"><path d="M1571,1631C1571,1632 1572,1632 1572,1633 1579,1644 1585,1644 1594,1654 1643,1698 1649,1717 1703,1754 1851,1854 2051,1934 2135,1965"/></g>
<polygon style="fill:#b3b3b3;stroke:#b3b3b3" points="2132,1966 2142,1968 2134,1962 2132,1966"/>
</g>
<g id="tomcat-jars-&gt;jasper" class="edge">
<g style="fill:none;stroke:#b3b3b3"><path d="M1578,1595C1609,1544 1697,1401 1732,1344"/></g>
<polygon style="fill:#b3b3b3;stroke:#b3b3b3" points="1734,1346 1737,1336 1730,1343 1734,1346"/>
</g>
<g id="tomcat-jars-new" class="node">
<a xlink:href="javascript:alert('tomcat-jars-new');">
<ellipse cx="1364" cy="2057" rx="66" ry="18" style="fill:#d9d9d9;stroke:#d9d9d9"/>
<text text-anchor="middle" x="1364" y="2062" style="font-family:Times;font-size:14.00">tomcat-jars-new</text>
</a></g>
<g id="tomcat-jars-new-&gt;tomcat-jars" class="edge">
<g style="fill:none;stroke:#b3b3b3"><path d="M1396,2041C1409,2034 1422,2024 1431,2012 1523,1893 1554,1708 1564,1640"/></g>
<polygon style="fill:#b3b3b3;stroke:#b3b3b3" points="1566,1641 1565,1631 1561,1641 1566,1641"/>
</g>
<g id="j2ee" class="node">
<a xlink:href="javascript:alert('j2ee');">
<ellipse cx="95" cy="473" rx="27" ry="18" style="fill:#d9d9d9;stroke:#d9d9d9"/>
<text text-anchor="middle" x="95" y="478" style="font-family:Times;font-size:14.00">j2ee</text>
</a></g>
<g id="tomcat-j2ee.jar" class="node">
<a xlink:href="javascript:alert('tomcat-j2ee.jar');">
<ellipse cx="339" cy="473" rx="61" ry="18" style="fill:#d9d9d9;stroke:#d9d9d9"/>
<text text-anchor="middle" x="339" y="478" style="font-family:Times;font-size:14.00">tomcat-j2ee.jar</text>
</a></g>
<g id="j2ee-&gt;tomcat-j2ee.jar" class="edge">
<g style="fill:none;stroke:#b3b3b3"><path d="M122,473C157,473 219,473 268,473"/></g>
<polygon style="fill:#b3b3b3;stroke:#b3b3b3" points="268,475 278,473 268,470 268,475"/>
</g>
<g id="webapps" class="node">
<a xlink:href="javascript:alert('webapps');">
<ellipse cx="1364" cy="1281" rx="41" ry="18" style="fill:#d9d9d9;stroke:#d9d9d9"/>
<text text-anchor="middle" x="1364" y="1286" style="font-family:Times;font-size:14.00">webapps</text>
</a></g>
<g id="webapps-&gt;prepare" class="edge">
<g style="fill:none;stroke:#b3b3b3"><path d="M1386,1266C1444,1228 1602,1134 1748,1134 1748,1134 1748,1134 1947,1134 2093,1134 2264,1135 2343,1135"/></g>
<polygon style="fill:#b3b3b3;stroke:#b3b3b3" points="2340,1137 2350,1135 2340,1132 2340,1137"/>
</g>
<g id="sanity-test" class="node">
<a xlink:href="javascript:alert('sanity-test');">
<ellipse cx="1128" cy="619" rx="45" ry="18" style="fill:#d9d9d9;stroke:#d9d9d9"/>
<text text-anchor="middle" x="1128" y="624" style="font-family:Times;font-size:14.00">sanity-test</text>
</a></g>
<g id="(default)" class="node">
<a xlink:href="javascript:alert('(default)');">
<ellipse cx="1364" cy="619" rx="40" ry="18" style="fill:#ffc0cb;stroke:#ffc0cb"/>
<text text-anchor="middle" x="1364" y="624" style="font-family:Times;font-size:14.00">(default)</text>
</a></g>
<g id="sanity-test-&gt;(default)" class="edge">
<g style="fill:none;stroke:#b3b3b3"><path d="M1173,619C1214,619 1273,619 1314,619"/></g>
<polygon style="fill:#b3b3b3;stroke:#b3b3b3" points="1313,621 1323,619 1313,616 1313,621"/>
</g>
<g id="watchdog-web-based" class="node">
<a xlink:href="javascript:alert('watchdog-web-based');">
<ellipse cx="1128" cy="691" rx="83" ry="18" style="fill:#d9d9d9;stroke:#d9d9d9"/>
<text text-anchor="middle" x="1128" y="696" style="font-family:Times;font-size:14.00">watchdog-web-based</text>
</a></g>
<g id="watchdog" class="node">
<a xlink:href="javascript:alert('watchdog');">
<ellipse cx="1364" cy="691" rx="44" ry="18" style="fill:#d9d9d9;stroke:#d9d9d9"/>
<text text-anchor="middle" x="1364" y="696" style="font-family:Times;font-size:14.00">watchdog</text>
</a></g>
<g id="watchdog-web-based-&gt;watchdog" class="edge">
<g style="fill:none;stroke:#b3b3b3"><path d="M1211,691C1244,691 1281,691 1310,691"/></g>
<polygon style="fill:#b3b3b3;stroke:#b3b3b3" points="1309,693 1319,691 1309,688 1309,693"/>
</g>
<g id="tests" class="node">
<a xlink:href="javascript:alert('tests');">
<ellipse cx="867" cy="691" rx="27" ry="18" style="fill:#d9d9d9;stroke:#d9d9d9"/>
<text text-anchor="middle" x="867" y="696" style="font-family:Times;font-size:14.00">tests</text>
</a></g>
<g id="tests-&gt;sanity-test" class="edge">
<g style="fill:none;stroke:#b3b3b3"><path d="M892,684C936,672 1027,646 1083,631"/></g>
<polygon style="fill:#b3b3b3;stroke:#b3b3b3" points="1081,634 1090,629 1080,629 1081,634"/>
</g>
<g id="tests-&gt;watchdog-web-based" class="edge">
<g style="fill:none;stroke:#b3b3b3"><path d="M894,691C927,691 985,691 1034,691"/></g>
<polygon style="fill:#b3b3b3;stroke:#b3b3b3" points="1035,693 1045,691 1035,688 1035,693"/>
</g>
<g id="main" class="node">
<a xlink:href="javascript:alert('main');">
<ellipse cx="1128" cy="1281" rx="28" ry="18" style="fill:#ffc0cb;stroke:#ffc0cb"/>
<text text-anchor="middle" x="1128" y="1286" style="font-family:Times;font-size:14.00">main</text>
</a></g>
<g id="tests-&gt;main" class="edge">
<g style="fill:none;stroke:#b3b3b3"><path d="M875,708C912,792 1072,1155 1116,1255"/></g>
<polygon style="fill:#b3b3b3;stroke:#b3b3b3" points="1113,1255 1120,1263 1118,1253 1113,1255"/>
</g>
<g id="main-&gt;webapps" class="edge">
<g style="fill:none;stroke:#b3b3b3"><path d="M1157,1281C1196,1281 1265,1281 1313,1281"/></g>
<polygon style="fill:#b3b3b3;stroke:#b3b3b3" points="1313,1283 1323,1281 1313,1278 1313,1283"/>
</g>
<g id="tomcat" class="node">
<a xlink:href="javascript:alert('tomcat');">
<ellipse cx="1364" cy="986" rx="34" ry="18" style="fill:#d9d9d9;stroke:#d9d9d9"/>
<text text-anchor="middle" x="1364" y="991" style="font-family:Times;font-size:14.00">tomcat</text>
</a></g>
<g id="main-&gt;tomcat" class="edge">
<g style="fill:none;stroke:#b3b3b3"><path d="M1141,1265C1180,1216 1297,1069 1344,1011"/></g>
<polygon style="fill:#b3b3b3;stroke:#b3b3b3" points="1346,1012 1350,1003 1342,1009 1346,1012"/>
</g>
<g id="test.war" class="node">
<a xlink:href="javascript:alert('test.war');">
<ellipse cx="95" cy="364" rx="37" ry="18" style="fill:#d9d9d9;stroke:#d9d9d9"/>
<text text-anchor="middle" x="95" y="369" style="font-family:Times;font-size:14.00">test.war</text>
</a></g>
<g id="tests.dist" class="node">
<a xlink:href="javascript:alert('tests.dist');">
<ellipse cx="598" cy="727" rx="38" ry="18" style="fill:#d9d9d9;stroke:#d9d9d9"/>
<text text-anchor="middle" x="598" y="732" style="font-family:Times;font-size:14.00">tests.dist</text>
</a></g>
<g id="tests.dist-&gt;tests" class="edge">
<g style="fill:none;stroke:#b3b3b3"><path d="M635,722C688,715 783,702 833,696"/></g>
<polygon style="fill:#b3b3b3;stroke:#b3b3b3" points="830,699 840,695 830,694 830,699"/>
</g>
<g id="watchdog.dist" class="node">
<a xlink:href="javascript:alert('watchdog.dist');">
<ellipse cx="598" cy="655" rx="57" ry="18" style="fill:#d9d9d9;stroke:#d9d9d9"/>
<text text-anchor="middle" x="598" y="660" style="font-family:Times;font-size:14.00">watchdog.dist</text>
</a></g>
<g id="watchdog.dist-&gt;tests" class="edge">
<g style="fill:none;stroke:#b3b3b3"><path d="M651,662C704,669 784,680 831,686"/></g>
<polygon style="fill:#b3b3b3;stroke:#b3b3b3" points="830,688 840,687 830,683 830,688"/>
</g>
<g id="sample.add-ons" class="node">
<a xlink:href="javascript:alert('sample.add-ons');">
<ellipse cx="339" cy="256" rx="62" ry="18" style="fill:#d9d9d9;stroke:#d9d9d9"/>
<text text-anchor="middle" x="339" y="261" style="font-family:Times;font-size:14.00">sample.add-ons</text>
</a></g>
<g id="(default)-1" class="node">
<a xlink:href="javascript:alert('(default)-1');">
<ellipse cx="598" cy="193" rx="40" ry="18" style="fill:#ffc0cb;stroke:#ffc0cb"/>
<text text-anchor="middle" x="598" y="198" style="font-family:Times;font-size:14.00">(default)</text>
</a></g>
<g id="sample.add-ons-&gt;(default)-1" class="edge">
<g style="fill:none;stroke:#b3b3b3"><path d="M387,244C435,233 507,216 553,204"/></g>
<polygon style="fill:#b3b3b3;stroke:#b3b3b3" points="553,207 562,202 552,202 553,207"/>
</g>
<g id="(default)-2" class="node">
<a xlink:href="javascript:alert('(default)-2');">
<ellipse cx="598" cy="337" rx="40" ry="18" style="fill:#ffc0cb;stroke:#ffc0cb"/>
<text text-anchor="middle" x="598" y="342" style="font-family:Times;font-size:14.00">(default)</text>
</a></g>
<g id="sample.add-ons-&gt;(default)-2" class="edge">
<g style="fill:none;stroke:#b3b3b3"><path d="M381,269C409,278 446,290 479,301 505,309 534,318 556,325"/></g>
<polygon style="fill:#b3b3b3;stroke:#b3b3b3" points="554,327 564,327 555,322 554,327"/>
</g>
<g id="sample.add-ons.dist" class="node">
<a xlink:href="javascript:alert('sample.add-ons.dist');">
<ellipse cx="95" cy="256" rx="75" ry="18" style="fill:#d9d9d9;stroke:#d9d9d9"/>
<text text-anchor="middle" x="95" y="261" style="font-family:Times;font-size:14.00">sample.add-ons.dist</text>
</a></g>
<g id="sample.add-ons.dist-&gt;sample.add-ons" class="edge">
<g style="fill:none;stroke:#b3b3b3"><path d="M171,256C202,256 236,256 266,256"/></g>
<polygon style="fill:#b3b3b3;stroke:#b3b3b3" points="266,258 276,256 266,253 266,258"/>
</g>
<g id="password.prompter.war" class="node">
<a xlink:href="javascript:alert('password.prompter.war');">
<ellipse cx="598" cy="49" rx="91" ry="18" style="fill:#d9d9d9;stroke:#d9d9d9"/>
<text text-anchor="middle" x="598" y="54" style="font-family:Times;font-size:14.00">password.prompter.war</text>
</a></g>
<g id="sample.add-ons.dist-&gt;password.prompter.war" class="edge">
<g style="fill:none;stroke:#b3b3b3"><path d="M136,241C148,235 161,228 171,220 217,182 200,144 250,113 325,66 424,51 497,48"/></g>
<polygon style="fill:#b3b3b3;stroke:#b3b3b3" points="497,50 507,48 497,45 497,50"/>
</g>
<g id="stream.handler.war" class="node">
<a xlink:href="javascript:alert('stream.handler.war');">
<ellipse cx="598" cy="409" rx="76" ry="18" style="fill:#d9d9d9;stroke:#d9d9d9"/>
<text text-anchor="middle" x="598" y="414" style="font-family:Times;font-size:14.00">stream.handler.war</text>
</a></g>
<g id="sample.add-ons.dist-&gt;stream.handler.war" class="edge">
<g style="fill:none;stroke:#b3b3b3"><path d="M142,270C214,292 358,336 479,373 500,379 522,386 542,392"/></g>
<polygon style="fill:#b3b3b3;stroke:#b3b3b3" points="541,394 551,395 542,389 541,394"/>
</g>
<g id="sample.add-ons.clean" class="node">
<a xlink:href="javascript:alert('sample.add-ons.clean');">
<ellipse cx="339" cy="149" rx="81" ry="18" style="fill:#d9d9d9;stroke:#d9d9d9"/>
<text text-anchor="middle" x="339" y="154" style="font-family:Times;font-size:14.00">sample.add-ons.clean</text>
</a></g>
<g id="clean-1" class="node">
<a xlink:href="javascript:alert('clean-1');">
<ellipse cx="598" cy="121" rx="28" ry="18" style="fill:#d9d9d9;stroke:#d9d9d9"/>
<text text-anchor="middle" x="598" y="126" style="font-family:Times;font-size:14.00">clean</text>
</a></g>
<g id="sample.add-ons.clean-&gt;clean-1" class="edge">
<g style="fill:none;stroke:#b3b3b3"><path d="M413,141C462,136 523,129 562,125"/></g>
<polygon style="fill:#b3b3b3;stroke:#b3b3b3" points="560,128 570,124 560,123 560,128"/>
</g>
<g id="clean-2" class="node">
<a xlink:href="javascript:alert('clean-2');">
<ellipse cx="598" cy="265" rx="28" ry="18" style="fill:#d9d9d9;stroke:#d9d9d9"/>
<text text-anchor="middle" x="598" y="270" style="font-family:Times;font-size:14.00">clean</text>
</a></g>
<g id="sample.add-ons.clean-&gt;clean-2" class="edge">
<g style="fill:none;stroke:#b3b3b3"><path d="M366,166C393,183 438,210 479,228 507,240 539,250 563,256"/></g>
<polygon style="fill:#b3b3b3;stroke:#b3b3b3" points="561,258 571,258 562,253 561,258"/>
</g>
<g id="etomcat" class="node">
<a xlink:href="javascript:alert('etomcat');">
<ellipse cx="2581" cy="1871" rx="38" ry="18" style="fill:#d9d9d9;stroke:#d9d9d9"/>
<text text-anchor="middle" x="2581" y="1876" style="font-family:Times;font-size:14.00">etomcat</text>
</a></g>
<g id="etomcat-&gt;init" class="edge">
<g style="fill:none;stroke:#b3b3b3"><path d="M2603,1856C2613,1848 2626,1837 2635,1826 2705,1739 2755,1616 2775,1564"/></g>
<polygon style="fill:#b3b3b3;stroke:#b3b3b3" points="2777,1567 2777,1557 2772,1566 2777,1567"/>
</g>
<g id="dist" class="node">
<a xlink:href="javascript:alert('dist');">
<ellipse cx="339" cy="1428" rx="27" ry="18" style="fill:#d9d9d9;stroke:#d9d9d9"/>
<text text-anchor="middle" x="339" y="1433" style="font-family:Times;font-size:14.00">dist</text>
</a></g>
<g id="dist.prepare" class="node">
<a xlink:href="javascript:alert('dist.prepare');">
<ellipse cx="867" cy="1502" rx="50" ry="18" style="fill:#d9d9d9;stroke:#d9d9d9"/>
<text text-anchor="middle" x="867" y="1507" style="font-family:Times;font-size:14.00">dist.prepare</text>
</a></g>
<g id="dist-&gt;dist.prepare" class="edge">
<g style="fill:none;stroke:#b3b3b3"><path d="M366,1432C448,1444 697,1478 810,1494"/></g>
<polygon style="fill:#b3b3b3;stroke:#b3b3b3" points="810,1496 820,1495 810,1492 810,1496"/>
</g>
<g id="javadoc" class="node">
<a xlink:href="javascript:alert('javadoc');">
<ellipse cx="867" cy="1427" rx="37" ry="18" style="fill:#d9d9d9;stroke:#d9d9d9"/>
<text text-anchor="middle" x="867" y="1432" style="font-family:Times;font-size:14.00">javadoc</text>
</a></g>
<g id="dist-&gt;javadoc" class="edge">
<g style="fill:none;stroke:#b3b3b3"><path d="M366,1428C451,1428 712,1427 820,1427"/></g>
<polygon style="fill:#b3b3b3;stroke:#b3b3b3" points="819,1429 829,1427 819,1424 819,1429"/>
</g>
<g id="dist.war" class="node">
<a xlink:href="javascript:alert('dist.war');">
<ellipse cx="598" cy="1538" rx="37" ry="18" style="fill:#d9d9d9;stroke:#d9d9d9"/>
<text text-anchor="middle" x="598" y="1543" style="font-family:Times;font-size:14.00">dist.war</text>
</a></g>
<g id="dist-&gt;dist.war" class="edge">
<g style="fill:none;stroke:#b3b3b3"><path d="M361,1439C389,1452 437,1475 479,1493 506,1504 537,1515 560,1524"/></g>
<polygon style="fill:#b3b3b3;stroke:#b3b3b3" points="558,1526 568,1527 560,1521 558,1526"/>
</g>
<g id="dist.prepare-&gt;tomcat-jars" class="edge">
<g style="fill:none;stroke:#b3b3b3"><path d="M873,1520C891,1568 947,1701 1045,1752 1198,1830 1273,1818 1431,1752 1486,1729 1531,1670 1552,1638"/></g>
<polygon style="fill:#b3b3b3;stroke:#b3b3b3" points="1553,1641 1556,1631 1549,1638 1553,1641"/>
</g>
<g id="dist.prepare-&gt;webapps" class="edge">
<g style="fill:none;stroke:#b3b3b3"><path d="M910,1493C977,1478 1108,1445 1211,1397 1279,1365 1304,1360 1351,1307"/></g>
<polygon style="fill:#b3b3b3;stroke:#b3b3b3" points="1353,1308 1357,1299 1349,1305 1353,1308"/>
</g>
<g id="dist.prepare-&gt;main" class="edge">
<g style="fill:none;stroke:#b3b3b3"><path d="M905,1490C922,1483 943,1474 959,1463 1024,1417 1083,1344 1111,1306"/></g>
<polygon style="fill:#b3b3b3;stroke:#b3b3b3" points="1113,1308 1116,1298 1109,1305 1113,1308"/>
</g>
<g id="javadoc-&gt;tomcat-jars" class="edge">
<g style="fill:none;stroke:#b3b3b3"><path d="M901,1435C920,1440 943,1450 959,1466 1031,1538 961,1621 1045,1678 1188,1773 1264,1715 1431,1678 1469,1669 1508,1649 1535,1634"/></g>
<polygon style="fill:#b3b3b3;stroke:#b3b3b3" points="1536,1636 1543,1629 1533,1632 1536,1636"/>
</g>
<g id="javadoc-&gt;webapps" class="edge">
<g style="fill:none;stroke:#b3b3b3"><path d="M902,1420C965,1408 1100,1379 1211,1346 1271,1328 1297,1332 1342,1302"/></g>
<polygon style="fill:#b3b3b3;stroke:#b3b3b3" points="1342,1305 1349,1298 1339,1301 1342,1305"/>
</g>
<g id="javadoc-&gt;main" class="edge">
<g style="fill:none;stroke:#b3b3b3"><path d="M898,1416C916,1410 939,1400 959,1390 1012,1362 1071,1323 1103,1300"/></g>
<polygon style="fill:#b3b3b3;stroke:#b3b3b3" points="1103,1303 1109,1295 1100,1299 1103,1303"/>
</g>
<g id="dist.war-&gt;dist.prepare" class="edge">
<g style="fill:none;stroke:#b3b3b3"><path d="M634,1533C680,1526 760,1516 813,1509"/></g>
<polygon style="fill:#b3b3b3;stroke:#b3b3b3" points="810,1512 820,1508 810,1507 810,1512"/>
</g>
<g id="javadoc.tomcat" class="node">
<a xlink:href="javascript:alert('javadoc.tomcat');">
<ellipse cx="867" cy="1946" rx="62" ry="18" style="fill:#d9d9d9;stroke:#d9d9d9"/>
<text text-anchor="middle" x="867" y="1951" style="font-family:Times;font-size:14.00">javadoc.tomcat</text>
</a></g>
<g id="javadoc.tomcat-&gt;tomcat-jars" class="edge">
<g style="fill:none;stroke:#b3b3b3"><path d="M889,1963C969,2024 1251,2219 1431,2093 1570,1995 1515,1897 1550,1732 1553,1720 1553,1717 1555,1705 1558,1689 1559,1686 1561,1671 1563,1661 1564,1650 1565,1640"/></g>
<polygon style="fill:#b3b3b3;stroke:#b3b3b3" points="1567,1641 1566,1631 1562,1641 1567,1641"/>
</g>
<g id="javadoc.tomcat-&gt;webapps" class="edge">
<g style="fill:none;stroke:#b3b3b3"><path d="M917,1935C924,1933 931,1930 938,1927 949,1922 951,1919 959,1913 1073,1826 1128,1829 1211,1713 1308,1579 1348,1381 1360,1308"/></g>
<polygon style="fill:#b3b3b3;stroke:#b3b3b3" points="1362,1309 1361,1299 1357,1309 1362,1309"/>
</g>
<g id="javadoc.tomcat-&gt;main" class="edge">
<g style="fill:none;stroke:#b3b3b3"><path d="M916,1935C932,1929 948,1921 959,1908 1041,1814 1107,1416 1124,1308"/></g>
<polygon style="fill:#b3b3b3;stroke:#b3b3b3" points="1126,1309 1125,1299 1121,1309 1126,1309"/>
</g>
<g id="javadoc.tomcat.core" class="node">
<a xlink:href="javascript:alert('javadoc.tomcat.core');">
<ellipse cx="867" cy="986" rx="77" ry="18" style="fill:#d9d9d9;stroke:#d9d9d9"/>
<text text-anchor="middle" x="867" y="991" style="font-family:Times;font-size:14.00">javadoc.tomcat.core</text>
</a></g>
<g id="javadoc.tomcat.core-&gt;tomcat-jars" class="edge">
<g style="fill:none;stroke:#b3b3b3"><path d="M898,969C988,923 1253,805 1431,911 1626,1025 1546,1176 1561,1402 1564,1437 1566,1536 1567,1585"/></g>
<polygon style="fill:#b3b3b3;stroke:#b3b3b3" points="1565,1585 1567,1595 1570,1585 1565,1585"/>
</g>
<g id="javadoc.tomcat.core-&gt;webapps" class="edge">
<g style="fill:none;stroke:#b3b3b3"><path d="M928,997C1000,1012 1121,1045 1211,1102 1275,1142 1280,1167 1331,1223 1342,1234 1348,1235 1355,1250 1356,1252 1357,1254 1358,1256"/></g>
<polygon style="fill:#b3b3b3;stroke:#b3b3b3" points="1355,1254 1360,1263 1360,1253 1355,1254"/>
</g>
<g id="javadoc.tomcat.core-&gt;main" class="edge">
<g style="fill:none;stroke:#b3b3b3"><path d="M917,1000C931,1006 947,1014 959,1024 1040,1091 1097,1207 1118,1257"/></g>
<polygon style="fill:#b3b3b3;stroke:#b3b3b3" points="1114,1255 1121,1263 1119,1253 1114,1255"/>
</g>
<g id="javadoc.tomcat.facade" class="node">
<a xlink:href="javascript:alert('javadoc.tomcat.facade');">
<ellipse cx="867" cy="1060" rx="86" ry="18" style="fill:#d9d9d9;stroke:#d9d9d9"/>
<text text-anchor="middle" x="867" y="1065" style="font-family:Times;font-size:14.00">javadoc.tomcat.facade</text>
</a></g>
<g id="javadoc.tomcat.facade-&gt;tomcat-jars" class="edge">
<g style="fill:none;stroke:#b3b3b3"><path d="M908,1044C1024,1001 1348,887 1431,950 1536,1028 1562,1469 1566,1585"/></g>
<polygon style="fill:#b3b3b3;stroke:#b3b3b3" points="1564,1585 1566,1595 1569,1585 1564,1585"/>
</g>
<g id="javadoc.tomcat.facade-&gt;webapps" class="edge">
<g style="fill:none;stroke:#b3b3b3"><path d="M930,1072C1001,1088 1118,1117 1211,1162 1280,1194 1306,1199 1352,1256"/></g>
<polygon style="fill:#b3b3b3;stroke:#b3b3b3" points="1350,1257 1358,1263 1353,1254 1350,1257"/>
</g>
<g id="javadoc.tomcat.facade-&gt;main" class="edge">
<g style="fill:none;stroke:#b3b3b3"><path d="M915,1075C930,1081 946,1089 959,1098 1024,1144 1084,1218 1112,1256"/></g>
<polygon style="fill:#b3b3b3;stroke:#b3b3b3" points="1110,1257 1117,1264 1114,1254 1110,1257"/>
</g>
<g id="javadoc.tomcat.modules" class="node">
<a xlink:href="javascript:alert('javadoc.tomcat.modules');">
<ellipse cx="867" cy="1134" rx="92" ry="18" style="fill:#d9d9d9;stroke:#d9d9d9"/>
<text text-anchor="middle" x="867" y="1139" style="font-family:Times;font-size:14.00">javadoc.tomcat.modules</text>
</a></g>
<g id="javadoc.tomcat.modules-&gt;tomcat-jars" class="edge">
<g style="fill:none;stroke:#b3b3b3"><path d="M945,1124C1067,1114 1302,1114 1431,1245 1482,1295 1542,1514 1561,1589"/></g>
<polygon style="fill:#b3b3b3;stroke:#b3b3b3" points="1557,1586 1563,1595 1562,1585 1557,1586"/>
</g>
<g id="javadoc.tomcat.modules-&gt;webapps" class="edge">
<g style="fill:none;stroke:#b3b3b3"><path d="M934,1146C1004,1160 1116,1184 1211,1213 1272,1230 1298,1225 1343,1259"/></g>
<polygon style="fill:#b3b3b3;stroke:#b3b3b3" points="1340,1260 1350,1264 1343,1256 1340,1260"/>
</g>
<g id="javadoc.tomcat.modules-&gt;main" class="edge">
<g style="fill:none;stroke:#b3b3b3"><path d="M897,1151C949,1180 1050,1238 1100,1265"/></g>
<polygon style="fill:#b3b3b3;stroke:#b3b3b3" points="1096,1266 1106,1269 1099,1261 1096,1266"/>
</g>
<g id="javadoc.tomcat.startup" class="node">
<a xlink:href="javascript:alert('javadoc.tomcat.startup');">
<ellipse cx="867" cy="1872" rx="87" ry="18" style="fill:#d9d9d9;stroke:#d9d9d9"/>
<text text-anchor="middle" x="867" y="1877" style="font-family:Times;font-size:14.00">javadoc.tomcat.startup</text>
</a></g>
<g id="javadoc.tomcat.startup-&gt;tomcat-jars" class="edge">
<g style="fill:none;stroke:#b3b3b3"><path d="M942,1881C1056,1891 1275,1896 1431,1808 1513,1761 1521,1724 1560,1640"/></g>
<polygon style="fill:#b3b3b3;stroke:#b3b3b3" points="1562,1641 1564,1631 1558,1639 1562,1641"/>
</g>
<g id="javadoc.tomcat.startup-&gt;webapps" class="edge">
<g style="fill:none;stroke:#b3b3b3"><path d="M887,1854C961,1790 1217,1554 1355,1309 1355,1309 1355,1308 1356,1308"/></g>
<polygon style="fill:#b3b3b3;stroke:#b3b3b3" points="1358,1309 1360,1299 1354,1307 1358,1309"/>
</g>
<g id="javadoc.tomcat.startup-&gt;main" class="edge">
<g style="fill:none;stroke:#b3b3b3"><path d="M875,1854C913,1769 1072,1407 1116,1307"/></g>
<polygon style="fill:#b3b3b3;stroke:#b3b3b3" points="1118,1309 1120,1299 1113,1307 1118,1309"/>
</g>
<g id="javadoc.tomcat.util" class="node">
<a xlink:href="javascript:alert('javadoc.tomcat.util');">
<ellipse cx="867" cy="1281" rx="74" ry="18" style="fill:#d9d9d9;stroke:#d9d9d9"/>
<text text-anchor="middle" x="867" y="1286" style="font-family:Times;font-size:14.00">javadoc.tomcat.util</text>
</a></g>
<g id="javadoc.tomcat.util-&gt;tomcat-jars" class="edge">
<g style="fill:none;stroke:#b3b3b3"><path d="M907,1296C923,1303 942,1310 959,1318 1179,1415 1436,1546 1531,1594"/></g>
<polygon style="fill:#b3b3b3;stroke:#b3b3b3" points="1529,1596 1539,1598 1531,1591 1529,1596"/>
</g>
<g id="javadoc.tomcat.util-&gt;webapps" class="edge">
<g style="fill:none;stroke:#b3b3b3"><path d="M918,1268C954,1259 1002,1249 1045,1245 1119,1237 1138,1236 1211,1245 1249,1250 1291,1260 1321,1268"/></g>
<polygon style="fill:#b3b3b3;stroke:#b3b3b3" points="1320,1270 1330,1271 1321,1265 1320,1270"/>
</g>
<g id="javadoc.tomcat.util-&gt;main" class="edge">
<g style="fill:none;stroke:#b3b3b3"><path d="M942,1281C991,1281 1053,1281 1091,1281"/></g>
<polygon style="fill:#b3b3b3;stroke:#b3b3b3" points="1089,1283 1099,1281 1089,1278 1089,1283"/>
</g>
<g id="javadoc.jasper" class="node">
<a xlink:href="javascript:alert('javadoc.jasper');">
<ellipse cx="867" cy="1354" rx="59" ry="18" style="fill:#d9d9d9;stroke:#d9d9d9"/>
<text text-anchor="middle" x="867" y="1359" style="font-family:Times;font-size:14.00">javadoc.jasper</text>
</a></g>
<g id="javadoc.jasper-&gt;tomcat-jars" class="edge">
<g style="fill:none;stroke:#b3b3b3"><path d="M915,1365C931,1370 947,1379 959,1391 1032,1463 961,1546 1045,1604 1193,1705 1424,1655 1521,1627"/></g>
<polygon style="fill:#b3b3b3;stroke:#b3b3b3" points="1521,1630 1530,1625 1520,1625 1521,1630"/>
</g>
<g id="javadoc.jasper-&gt;webapps" class="edge">
<g style="fill:none;stroke:#b3b3b3"><path d="M925,1350C993,1344 1111,1334 1211,1317 1248,1311 1289,1301 1319,1293"/></g>
<polygon style="fill:#b3b3b3;stroke:#b3b3b3" points="1320,1295 1329,1290 1319,1290 1320,1295"/>
</g>
<g id="javadoc.jasper-&gt;main" class="edge">
<g style="fill:none;stroke:#b3b3b3"><path d="M911,1342C961,1328 1045,1304 1092,1291"/></g>
<polygon style="fill:#b3b3b3;stroke:#b3b3b3" points="1093,1293 1102,1288 1092,1288 1093,1293"/>
</g>
<g id="dist.nojavadoc" class="node">
<a xlink:href="javascript:alert('dist.nojavadoc');">
<ellipse cx="339" cy="1538" rx="59" ry="18" style="fill:#d9d9d9;stroke:#d9d9d9"/>
<text text-anchor="middle" x="339" y="1543" style="font-family:Times;font-size:14.00">dist.nojavadoc</text>
</a></g>
<g id="dist.nojavadoc-&gt;dist.war" class="edge">
<g style="fill:none;stroke:#b3b3b3"><path d="M398,1538C445,1538 509,1538 552,1538"/></g>
<polygon style="fill:#b3b3b3;stroke:#b3b3b3" points="551,1540 561,1538 551,1535 551,1540"/>
</g>
<g id="dist-zip" class="node">
<a xlink:href="javascript:alert('dist-zip');">
<ellipse cx="95" cy="1428" rx="35" ry="18" style="fill:#d9d9d9;stroke:#d9d9d9"/>
<text text-anchor="middle" x="95" y="1433" style="font-family:Times;font-size:14.00">dist-zip</text>
</a></g>
<g id="dist-zip-&gt;dist" class="edge">
<g style="fill:none;stroke:#b3b3b3"><path d="M131,1428C177,1428 256,1428 303,1428"/></g>
<polygon style="fill:#b3b3b3;stroke:#b3b3b3" points="302,1430 312,1428 302,1425 302,1430"/>
</g>
<g id="tomcat-&gt;prepare" class="edge">
<g style="fill:none;stroke:#b3b3b3"><path d="M1394,996C1458,1016 1614,1060 1748,1060 1748,1060 1748,1060 1947,1060 2097,1060 2272,1103 2348,1124"/></g>
<polygon style="fill:#b3b3b3;stroke:#b3b3b3" points="2345,1126 2355,1126 2346,1121 2345,1126"/>
</g>
<g id="tomcat-&gt;tomcat-jars" class="edge">
<g style="fill:none;stroke:#b3b3b3"><path d="M1391,998C1405,1005 1421,1016 1431,1031 1496,1124 1550,1485 1564,1586"/></g>
<polygon style="fill:#b3b3b3;stroke:#b3b3b3" points="1561,1585 1565,1595 1566,1585 1561,1585"/>
</g>
<g id="clean-classes" class="node">
<a xlink:href="javascript:alert('clean-classes');">
<ellipse cx="2581" cy="1943" rx="52" ry="18" style="fill:#d9d9d9;stroke:#d9d9d9"/>
<text text-anchor="middle" x="2581" y="1948" style="font-family:Times;font-size:14.00">clean-classes</text>
</a></g>
<g id="clean-classes-&gt;init" class="edge">
<g style="fill:none;stroke:#b3b3b3"><path d="M2610,1928C2619,1922 2628,1915 2635,1907 2724,1798 2765,1630 2778,1565"/></g>
<polygon style="fill:#b3b3b3;stroke:#b3b3b3" points="2780,1567 2780,1557 2775,1566 2780,1567"/>
</g>
<g id="clean" class="node">
<a xlink:href="javascript:alert('clean');">
<ellipse cx="1567" cy="766" rx="28" ry="18" style="fill:#d9d9d9;stroke:#d9d9d9"/>
<text text-anchor="middle" x="1567" y="771" style="font-family:Times;font-size:14.00">clean</text>
</a></g>
<g id="clean-&gt;init" class="edge">
<g style="fill:none;stroke:#b3b3b3"><path d="M1581,782C1628,832 1784,986 1947,986 1947,986 1947,986 2387,986 2509,986 2552,1011 2635,1099 2751,1220 2776,1435 2781,1511"/></g>
<polygon style="fill:#b3b3b3;stroke:#b3b3b3" points="2779,1511 2782,1521 2783,1511 2779,1511"/>
</g>
<g id="all" class="node">
<a xlink:href="javascript:alert('all');">
<ellipse cx="95" cy="914" rx="27" ry="18" style="fill:#d9d9d9;stroke:#d9d9d9"/>
<text text-anchor="middle" x="95" y="919" style="font-family:Times;font-size:14.00">all</text>
</a></g>
<g id="all-&gt;dist" class="edge">
<g style="fill:none;stroke:#b3b3b3"><path d="M103,931C140,1008 284,1313 327,1403"/></g>
<polygon style="fill:#b3b3b3;stroke:#b3b3b3" points="324,1403 331,1411 329,1401 324,1403"/>
</g>
<g id="all-&gt;clean" class="edge">
<g style="fill:none;stroke:#b3b3b3"><path d="M106,897C154,825 358,546 598,546 598,546 598,546 1128,546 1264,546 1314,515 1431,584 1494,620 1537,699 1556,740"/></g>
<polygon style="fill:#b3b3b3;stroke:#b3b3b3" points="1553,740 1560,748 1558,738 1553,740"/>
</g>
<g id="help" class="node">
<a xlink:href="javascript:alert('help');">
<ellipse cx="95" cy="184" rx="27" ry="18" style="fill:#d9d9d9;stroke:#d9d9d9"/>
<text text-anchor="middle" x="95" y="189" style="font-family:Times;font-size:14.00">help</text>
</a></g>
</g>
</svg>
